<svg xmlns="http://www.w3.org/2000/svg" width="1280" height="450" viewBox="0 0 1280 450" role="img" aria-labelledby="title desc"><title id="title">GEOPrism — A clearer view of gene expression.</title><desc id="desc">A dark scientific banner with a geometric prism mark and illustrative sample points.</desc><defs><linearGradient id="bg" x2="1" y2="1"><stop stop-color="#101b2d"/><stop offset="1" stop-color="#080b13"/></linearGradient><linearGradient id="accent"><stop stop-color="#78eee0"/><stop offset=".55" stop-color="#b9a1ff"/><stop offset="1" stop-color="#f0c786"/></linearGradient></defs><rect width="1280" height="450" rx="22" fill="url(#bg)"/><rect x="1" y="1" width="1278" height="448" rx="21" fill="none" stroke="#2b3548"/><path d="M0 420H1280" stroke="url(#accent)" stroke-width="2"/><g font-family="Arial,Helvetica,sans-serif"><text x="62" y="66" font-family="monospace" font-size="14" letter-spacing="3" fill="#78eee0">GENE EXPRESSION, IN PERSPECTIVE</text><text x="58" y="180" font-size="98" font-weight="700" letter-spacing="-5" fill="#f0f4ff">GEOPrism</text><text x="62" y="237" font-size="32" fill="#c9d5e8">A clearer view of gene expression.</text><text x="62" y="304" font-size="18" fill="#9baec5">GEO datasets. Gene mapping. Interactive PCA.</text><text x="62" y="371" font-size="13" font-family="monospace" fill="#78eee0" letter-spacing="2">R / SHINY</text><text x="194" y="371" font-size="13" font-family="monospace" fill="#b9a1ff" letter-spacing="2">BIOCONDUCTOR</text><text x="374" y="371" font-size="13" font-family="monospace" fill="#f0c786" letter-spacing="2">PLOTLY</text></g><g opacity=".35" stroke="#3d526b"><path d="M860 85V356H1210" fill="none"/><path d="M860 155H1210M860 225H1210M860 295H1210M930 85V356M1000 85V356M1070 85V356M1140 85V356" stroke-dasharray="3 8"/></g><circle cx="937" cy="115" r="5" fill="#78eee0" opacity=".85"/><circle cx="983" cy="124" r="5" fill="#78eee0" opacity=".85"/><circle cx="1029" cy="133" r="5" fill="#78eee0" opacity=".85"/><circle cx="1054" cy="142" r="5" fill="#78eee0" opacity=".85"/><circle cx="1100" cy="115" r="5" fill="#78eee0" opacity=".85"/><circle cx="951" cy="168" r="5" fill="#78eee0" opacity=".85"/><circle cx="976" cy="177" r="5" fill="#78eee0" opacity=".85"/><circle cx="1022" cy="186" r="5" fill="#78eee0" opacity=".85"/><circle cx="1068" cy="159" r="5" fill="#78eee0" opacity=".85"/><circle cx="1093" cy="168" r="5" fill="#b9a1ff" opacity=".85"/><circle cx="944" cy="221" r="5" fill="#b9a1ff" opacity=".85"/><circle cx="990" cy="230" r="5" fill="#b9a1ff" opacity=".85"/><circle cx="1015" cy="203" r="5" fill="#b9a1ff" opacity=".85"/><circle cx="1061" cy="212" r="5" fill="#b9a1ff" opacity=".85"/><circle cx="1107" cy="221" r="5" fill="#b9a1ff" opacity=".85"/><circle cx="937" cy="274" r="5" fill="#b9a1ff" opacity=".85"/><circle cx="983" cy="247" r="5" fill="#b9a1ff" opacity=".85"/><circle cx="1029" cy="256" r="5" fill="#b9a1ff" opacity=".85"/><circle cx="1054" cy="265" r="5" fill="#f0c786" opacity=".85"/><circle cx="1100" cy="274" r="5" fill="#f0c786" opacity=".85"/><circle cx="951" cy="291" r="5" fill="#f0c786" opacity=".85"/><circle cx="976" cy="300" r="5" fill="#f0c786" opacity=".85"/><circle cx="1022" cy="309" r="5" fill="#f0c786" opacity=".85"/><circle cx="1068" cy="318" r="5" fill="#f0c786" opacity=".85"/><circle cx="1093" cy="291" r="5" fill="#f0c786" opacity=".85"/><path d="M764 316 872 108 982 316Z" fill="#12293a" fill-opacity=".82" stroke="#78eee0" stroke-width="2"/><path d="M872 108V316H982" stroke="#b9a1ff" stroke-width="2" fill="none"/><path d="M764 316 917 222 982 316" stroke="#f0c786" stroke-width="1.4" fill="none"/><path d="M872 108 917 222 872 316" fill="#78eee0" fill-opacity=".08"/></svg>